<?xml version="1.0" standalone="no"?>
<!DOCTYPE svg PUBLIC "-//W3C//DTD SVG 20010904//EN"
 "http://www.w3.org/TR/2001/REC-SVG-20010904/DTD/svg10.dtd">
<svg version="1.0" xmlns="http://www.w3.org/2000/svg"
 width="500.000000pt" height="500.000000pt" viewBox="0 0 500.000000 500.000000"
 preserveAspectRatio="xMidYMid meet">

<g transform="translate(0.000000,500.000000) scale(0.100000,-0.100000)"
fill="#000000" stroke="none">
<path d="M0 2500 l0 -2500 2500 0 2500 0 0 2500 0 2500 -2500 0 -2500 0 0
-2500z m2297 1818 c18 -18 33 -37 33 -43 0 -6 -43 -53 -95 -105 l-95 -95 0


-115 0 -115 97 -97 97 -98 -34 -35 c-19 -19 -39 -35 -44 -35 -6 0 -36 26 -68
57 l-58 57 0 -879 0 -880 185 185 185 185 185 -185 185 -185 0 885 0 884 -63
-62 c-34 -34 -67 -62 -73 -62 -5 0 -25 16 -44 35 l-34 35 102 103 102 102 0
105 0 105 -100 100 c-55 55 -100 104 -100 110 0 6 16 26 35 45 l35 34 68 -67
68 -67 559 0 560 0 95 -95 95 -95 -95 -95 -95 -95 -367 0 -368 0 0 -1138 0
-1137 -375 -375 -375 -375 -375 375 -375 375 0 1137 0 1138 -368 0 -367 0 -95
95 -95 95 95 95 95 95 555 0 556 0 64 65 c35 36 67 65 69 65 3 0 20 -14 38
-32z"/>
<path d="M3250 4030 l0 -110 327 0 327 0 -54 55 -54 55 54 55 54 55 -327 0
-327 0 0 -110z"/>
<path d="M2477 1751 c-20 -32 -37 -64 -37 -72 -1 -34 -16 -40 -42 -17 -31 28
-38 47 -26 71 13 24 2 55 -14 39 -7 -7 -13 -67 -15 -154 -4 -166 -16 -254 -38
-278 -25 -27 -18 -50 20 -66 45 -18 244 -18 300 1 l40 14 -40 -7 c-22 -4 -97
-7 -167 -7 -106 0 -130 3 -144 17 -11 11 -14 23 -9 35 7 17 8 17 15 -2 8 -19
9 -19 9 3 1 12 2 22 4 22 1 0 17 4 35 9 30 9 31 8 22 -10 -6 -10 -15 -19 -21
-19 -6 0 -8 -4 -5 -8 3 -5 49 -7 103 -6 54 2 124 3 156 3 l57 1 0 55 c0 48 -2
55 -20 55 -13 0 -18 -5 -13 -16 4 -10 -1 -17 -15 -21 -12 -3 -18 -11 -15 -19
2 -7 2 -18 -2 -24 -11 -18 -35 9 -35 41 0 15 -4 30 -9 33 -5 3 -14 19 -19 36
-10 28 -10 29 9 17 28 -17 39 4 39 80 0 54 3 64 25 81 27 22 28 48 5 93 l-13
22 -12 -29 c-11 -26 -10 -30 12 -45 20 -13 22 -17 9 -22 -11 -4 -16 -1 -17 11
0 10 -4 7 -10 -10 -13 -33 -38 -43 -73 -27 -29 14 -33 44 -16 129 4 25 7 46 6
47 -1 1 -18 -24 -39 -56z m-110 -200 c-9 -41 15 -60 37 -29 l16 22 0 -31 c0
-17 -5 -54 -12 -82 -9 -42 -16 -52 -41 -61 -17 -5 -31 -10 -32 -10 -1 0 2 21
6 48 4 26 8 75 8 110 1 39 5 62 12 62 7 0 9 -11 6 -29z"/>
<path d="M2690 1366 c0 -2 8 -10 18 -17 15 -13 16 -12 3 4 -13 16 -21 21 -21
13z"/>
<path d="M2691 1309 c-13 -10 -19 -19 -15 -19 13 1 48 29 43 34 -2 2 -15 -4
-28 -15z"/>
</g>
</svg>